HIERARCHY
ROOT Hips
{
	OFFSET 0.00 0.00 0.00
	CHANNELS 6 Xposition Yposition Zposition Xrotation Yrotation Zrotation
	JOINT LeftUpLeg
	{
		OFFSET 3.34807 0.00000 0.00000
		CHANNELS 3 Xrotation Yrotation Zrotation
		JOINT LeftLeg
		{
			OFFSET 0.00000 -16.98552 0.00000
			CHANNELS 3 Xrotation Yrotation Zrotation
			JOINT LeftFoot
			{
				OFFSET 0.00000 -16.83686 0.00000
				CHANNELS 3 Xrotation Yrotation Zrotation
				JOINT LeftToeBase
				{
					OFFSET 0.00000 -1.59599 5.95633
					CHANNELS 3 Xrotation Yrotation Zrotation
					End Site
					{
						OFFSET 0.00000 0.00000 2.95275
					}
				}
			}
		}
	}
	JOINT RightUpLeg
	{
		OFFSET -3.34807 0.00000 0.00000
		CHANNELS 3 Xrotation Yrotation Zrotation
		JOINT RightLeg
		{
			OFFSET 0.00000 -16.98552 0.00000
			CHANNELS 3 Xrotation Yrotation Zrotation
			JOINT RightFoot
			{
				OFFSET 0.00000 -16.83686 0.00000
				CHANNELS 3 Xrotation Yrotation Zrotation
				JOINT RightToeBase
				{
					OFFSET 0.00000 -1.59599 5.95633
					CHANNELS 3 Xrotation Yrotation Zrotation
					End Site
					{
						OFFSET 0.00000 0.00000 2.95275
					}
				}
			}
		}
	}
	JOINT Spine
	{
		OFFSET 0.00000 0.03937 0.00000
		CHANNELS 3 Xrotation Yrotation Zrotation
		JOINT Spine1
		{
			OFFSET 0.00000 7.93124 0.00000
			CHANNELS 3 Xrotation Yrotation Zrotation
			JOINT Neck
			{
				OFFSET 0.00000 8.48368 0.00000
				CHANNELS 3 Xrotation Yrotation Zrotation
				JOINT Head
				{
					OFFSET 0.00000 6.65077 0.00000
					CHANNELS 3 Xrotation Yrotation Zrotation
					End Site
					{
						OFFSET 0.00000 4.52755 0.00000
					}
				}
			}
			JOINT LeftShoulder
			{
				OFFSET 0.00000 8.48368 0.00000
				CHANNELS 3 Xrotation Yrotation Zrotation
				JOINT LeftArm
				{
					OFFSET 7.74502 -0.00003 0.00000
					CHANNELS 3 Xrotation Yrotation Zrotation
					JOINT LeftForeArm
					{
						OFFSET 12.49824 -0.00005 0.00000
						CHANNELS 3 Xrotation Yrotation Zrotation
						JOINT LeftHand
						{
							OFFSET 9.88337 -0.00004 0.00000
							CHANNELS 3 Xrotation Yrotation Zrotation
							JOINT LeftHandThumb
							{
								OFFSET 0.00000 0.00000 0.00000
								CHANNELS 3 Xrotation Yrotation Zrotation
								End Site
								{
									OFFSET 0.00000 0.00000 3.93700
								}
							}
							JOINT L_Wrist_End
							{
								OFFSET 3.93700 -0.00001 0.00000
								CHANNELS 3 Xrotation Yrotation Zrotation
							}
						}
					}
				}
			}
			JOINT RightShoulder
			{
				OFFSET 0.00000 8.48368 0.00000
				CHANNELS 3 Xrotation Yrotation Zrotation
				JOINT RightArm
				{
					OFFSET -7.74502 -0.00003 0.00000
					CHANNELS 3 Xrotation Yrotation Zrotation
					JOINT RightForeArm
					{
						OFFSET -12.49824 -0.00005 0.00000
						CHANNELS 3 Xrotation Yrotation Zrotation
						JOINT RightHand
						{
							OFFSET -9.88337 -0.00004 0.00000
							CHANNELS 3 Xrotation Yrotation Zrotation
							JOINT RightHandThumb
							{
								OFFSET 0.00000 0.00000 0.00000
								CHANNELS 3 Xrotation Yrotation Zrotation
								End Site
								{
									OFFSET 0.00000 0.00000 3.93700
								}
							}
							JOINT R_Wrist_End
							{
								OFFSET -5.39369 -0.00002 0.00000
								CHANNELS 3 Xrotation Yrotation Zrotation
							}
						}
					}
				}
			}
		}
	}
}
MOTION
Frames: 15
Frame Time: 0.066664
 -87.2391 25.0808 -5.7006 75.0414 43.7655 -81.2667 -94.2072 -7.9965 14.6138 95.8880 -0.0000 0.0000 -42.8280 8.9654 -12.2681 3.6080 -0.0000 -0.0000 -94.0174 -2.0503 5.1811 92.2150 -0.0000 0.0000 -38.0682 -14.9811 11.2544 -4.8356 -0.0000 -0.0000 -2.2256 0.2385 -1.1214 39.8909 -4.5548 -3.5225 -23.3067 9.6489 7.3020 -31.4558 -6.7236 -2.7488 -23.0729 5.6901 24.7416 -34.2483 -13.2296 -81.7363 -0.0000 -12.2374 -0.0000 -20.4070 -27.6771 13.4566 -0.0000 0.0000 -0.0000 -0.0000 0.0000 -0.0000 7.7913 -4.0353 -4.4814 -58.5711 17.3888 93.6895 -0.0000 7.6968 0.0000 -27.1765 -73.8791 -29.5401 -0.0000 0.0000 -0.0000 -0.0000 0.0000 -0.0000
 -84.9809 25.1060 -5.5247 71.6109 52.4575 -81.2286 -80.7347 -9.9568 16.4658 97.8528 -0.0000 0.0000 -44.8315 9.4210 -14.9405 -0.2614 0.0000 0.0000 -81.0334 -3.4209 6.4503 94.3870 -0.0000 0.0000 -37.4965 -14.5116 15.9655 -10.8443 0.0000 0.0000 -2.5562 -0.9411 -2.3502 38.3221 -1.2234 0.8090 -20.9992 10.1572 6.6822 -28.4549 -7.0896 -2.7180 -24.0698 -3.7241 28.3634 -60.8987 -8.8469 -72.6486 -0.0001 -14.6226 -0.0000 -20.6766 -36.7247 15.5296 -0.0000 -0.0000 0.0000 -0.0000 -0.0000 0.0000 0.0765 4.1825 -13.9902 -85.0133 4.3237 93.3529 -0.0001 17.8323 0.0000 -12.9731 -70.1724 -16.5189 -0.0000 0.0000 -0.0000 -0.0000 0.0000 -0.0000
 -81.7050 26.3850 -5.6623 68.7345 59.8386 -79.1710 -64.0105 -6.9066 17.5396 93.3680 -0.0000 0.0000 -44.0250 9.4670 -15.6598 -5.5019 -0.0000 0.0000 -63.9431 -4.4792 5.0638 89.4279 -0.0000 0.0000 -36.2421 -12.8339 18.1742 -14.0120 0.0000 0.0000 -1.4484 -1.2310 -1.6470 35.0736 -0.3229 2.1832 -18.7726 9.8831 5.3992 -27.6291 -8.5555 -0.8403 -26.5383 -9.4393 35.8431 -81.3852 -8.8008 -61.8509 -0.0001 -24.5520 -0.0000 -16.3054 -40.4724 9.4301 -0.0000 0.0000 -0.0000 -0.0000 0.0000 -0.0000 -2.7929 8.1695 -24.2752 -109.4909 12.5392 74.6014 -0.0001 24.9845 0.0000 2.5092 -5.5788 -26.8057 -0.0000 0.0000 -0.0000 -0.0000 0.0000 -0.0000
 -76.1601 29.6949 -5.8624 68.9863 65.3535 -78.3904 -41.2543 2.0115 17.6842 74.0941 -0.0000 0.0000 -36.0271 7.4082 -17.2105 -12.1550 -0.0000 -0.0000 -39.7926 -2.8718 3.0772 70.5086 -0.0000 0.0000 -27.7007 -10.7951 19.7019 -19.1266 0.0000 -0.0000 3.2991 -2.2193 -0.4303 19.7089 -1.5954 2.3105 -15.6354 11.2326 5.9812 -15.4315 -10.9533 0.0458 -28.1210 -21.5468 42.7069 -90.0204 -4.9916 -47.4764 -0.0000 -12.7313 -0.0000 -86.2377 -60.2960 57.5377 -0.0000 0.0000 -0.0000 -0.0000 0.0000 -0.0000 -4.9827 6.1520 -27.7192 -116.6022 18.3011 62.8077 -0.0001 24.9964 0.0000 -54.1643 -47.5473 -67.8761 -0.0000 0.0000 -0.0000 -0.0000 0.0000 -0.0000
 -69.0228 34.8735 -6.2967 64.7425 74.8786 -71.4530 -13.9277 14.8084 15.7369 46.0291 -0.0000 0.0000 2.3873 -2.0502 -22.8571 -28.6985 0.0000 -0.0000 -13.4570 -4.8051 -2.4975 47.3277 -0.0000 0.0000 5.9359 -6.3355 33.4087 13.3413 -0.0000 0.0000 3.9688 -2.7643 0.4307 15.3110 -2.5420 1.1827 -14.6892 9.6216 7.1316 6.1160 -11.0639 -0.0687 -23.2154 -14.2737 39.5112 -104.0983 -5.6520 -49.2560 -0.0001 -21.0322 -0.0000 -16.2253 -69.1504 140.0566 -0.0000 0.0000 -0.0000 -0.0000 0.0000 -0.0000 -3.2229 2.9391 -29.2433 -117.2730 18.1669 55.7999 -0.0002 40.6052 0.0001 -60.3368 -45.7572 -76.1138 -0.0000 0.0000 -0.0000 -0.0000 0.0000 -0.0000
 -63.8666 39.7924 -6.6506 67.4723 76.7138 -72.2297 -11.4087 14.6114 14.3801 41.9260 0.0000 0.0000 8.2600 -6.5965 -22.6882 1.2054 0.0000 -0.0000 -14.8436 -5.1749 -4.8576 51.8995 -0.0000 0.0000 11.7968 -10.1645 25.2208 16.3604 -0.0000 0.0000 2.3645 -3.5034 -0.1654 15.7075 -2.9528 2.4667 -16.1435 9.4960 7.8238 16.2757 -12.6707 -3.1114 -27.1590 -11.8047 40.5770 -96.3241 -8.3253 -45.9081 -0.0002 -40.5687 -0.0001 8.8920 -54.3813 171.6044 -0.0000 -0.0000 0.0000 -0.0000 -0.0000 0.0000 -6.2193 2.7275 -29.2096 -122.0787 13.0269 53.8430 -0.0004 60.3575 0.0002 -58.8268 -51.9144 -81.3908 -0.0000 0.0000 -0.0000 -0.0000 0.0000 -0.0000
 -59.6251 43.1212 -6.9362 63.7542 80.2312 -66.9588 -12.1697 15.4851 13.8630 36.9200 -0.0000 0.0000 -1.2730 3.4383 -21.6082 1.2433 -0.0000 0.0000 -19.4974 -6.3020 -6.5002 57.9130 -0.0000 0.0000 4.7823 -14.4386 20.3601 6.0476 0.0000 0.0000 4.8398 -3.7764 -0.0712 16.3368 -3.4155 2.0834 -11.7788 11.0070 6.3684 18.0133 -12.8111 -3.5163 -28.4271 -9.1056 42.5875 -94.2950 -1.2779 -45.3067 -0.0003 -53.7835 -0.0001 -42.3363 -66.0524 30.7805 -0.0000 0.0000 -0.0000 -0.0000 0.0000 -0.0000 -8.7409 2.1515 -32.4911 -122.2639 3.0358 54.2823 -0.0009 76.9959 0.0007 -65.7766 -56.2633 -84.4754 -0.0000 0.0000 -0.0000 -0.0000 0.0000 -0.0000
 -55.7262 44.9336 -7.0687 63.3541 81.6338 -66.0374 -17.7985 16.9452 15.0907 31.2407 -0.0000 0.0000 -4.0007 6.4747 -18.1918 -0.7078 0.0000 0.0000 -25.9792 -7.3395 -5.9653 55.5576 -0.0000 0.0000 8.1361 -9.7380 19.5503 -2.2786 0.0000 0.0000 5.7939 -3.9515 -0.0128 17.6339 -3.7484 1.7716 -10.3741 11.2491 6.2733 20.1215 -13.0589 -3.8466 -28.1185 -6.0083 42.3705 -90.6031 -2.3411 -46.3026 -0.0004 -62.4500 -0.0002 -34.2627 -64.5688 44.5337 -0.0000 0.0000 -0.0000 -0.0000 0.0000 -0.0000 -8.4118 1.2427 -32.8423 -120.2594 4.0157 54.2276 -0.0018 83.4611 0.0016 -64.7492 -60.5154 -84.7438 -0.0000 0.0000 -0.0000 -0.0000 0.0000 -0.0000
 -51.8619 44.9380 -7.3172 70.5992 82.9190 -72.1215 -24.5080 16.1646 14.0988 28.8925 -0.0000 0.0000 0.9951 6.9418 -16.4463 0.2236 -0.0000 0.0000 -31.1128 -9.3952 -6.3030 46.0711 -0.0000 0.0000 12.0707 -6.5856 20.8939 -4.8372 0.0000 0.0000 6.4618 -4.2564 0.0265 18.8405 -4.2812 1.3992 -10.0672 10.6068 5.6490 20.2911 -12.4147 -3.4889 -27.2452 -1.9976 42.3563 -85.4919 -8.0912 -47.0905 -0.0005 -66.6676 -0.0003 -34.8807 -63.0056 47.4414 -0.0000 0.0000 -0.0000 -0.0000 0.0000 -0.0000 -7.6699 -0.4008 -33.0065 -116.5994 9.5610 54.4499 -0.0015 81.7833 0.0013 -65.2082 -61.3943 -83.3602 -0.0000 0.0000 -0.0000 -0.0000 0.0000 -0.0000
 -47.6114 43.1646 -7.6652 73.8092 85.2009 -73.7281 -27.4592 17.7541 11.9408 22.6907 0.0000 0.0000 9.1770 0.6268 -22.8775 1.2520 0.0000 -0.0000 -31.3657 -11.5524 -7.1951 29.8046 -0.0000 0.0000 21.4964 -5.0309 22.7510 -4.7149 -0.0000 -0.0000 6.5861 -3.8092 0.3813 20.3253 -4.3014 0.3392 -9.9712 8.5387 4.2816 21.1283 -11.7064 -2.0460 -24.6577 2.9032 41.2545 -85.2617 -14.2482 -50.3696 -0.0005 -66.7784 -0.0003 -33.4069 -62.2527 47.3097 -0.0000 0.0000 -0.0000 -0.0000 0.0000 -0.0000 -6.4475 -1.6455 -32.8467 -112.3266 14.9795 55.6194 -0.0009 77.4416 0.0008 -67.1502 -62.3981 -81.4537 -0.0000 0.0000 -0.0000 -0.0000 0.0000 -0.0000
 -43.0335 39.5803 -7.9780 102.1574 87.3447 -100.7604 -29.9122 20.4017 10.0675 17.7981 -0.0000 0.0000 16.6395 -8.6808 -26.0290 -0.4773 0.0000 0.0000 -31.6445 -15.4720 -8.7601 18.9808 -0.0000 0.0000 25.2081 -0.6292 20.0466 -13.2430 0.0000 0.0000 5.6730 -3.5722 0.7540 20.8490 -4.2115 -0.0536 -10.3652 6.5258 3.0170 22.2164 -11.3298 -0.7638 -22.5131 5.6756 39.7139 -87.7638 -16.4340 -57.3838 -0.0004 -64.5273 -0.0003 -31.6975 -61.7177 47.5802 -0.0000 0.0000 -0.0000 -0.0000 0.0000 -0.0000 -4.9506 -2.3591 -31.9265 -109.5263 16.5679 60.0513 -0.0007 73.7050 0.0005 -64.0493 -64.2106 -78.4666 -0.0000 0.0000 -0.0000 -0.0000 0.0000 -0.0000
 -38.1783 33.9339 -8.1803 -111.9465 87.9178 114.1690 -35.7575 19.2295 11.2821 36.6494 -0.0000 0.0000 9.6842 -11.9282 -23.1528 -0.0027 -0.0000 0.0000 -37.9643 -17.6752 -10.8814 40.0080 -0.0000 0.0000 9.3058 1.7304 5.6317 -4.0277 -0.0000 0.0000 5.1595 -3.3704 0.7945 22.0900 -4.4162 -0.8302 -11.7419 5.8070 2.2215 22.2013 -11.3060 -0.3331 -24.6622 4.0543 40.6232 -84.3075 -13.8799 -64.9237 -0.0004 -59.7876 -0.0002 -31.7501 -59.7785 44.7792 -0.0000 0.0000 -0.0000 -0.0000 0.0000 -0.0000 -2.1359 -2.6988 -30.6396 -109.3332 15.6308 67.0462 -0.0005 68.8577 0.0004 -55.0966 -63.7776 -78.6324 -0.0000 0.0000 -0.0000 -0.0000 0.0000 -0.0000
 -34.7326 28.6930 -8.2475 -16.7791 86.8298 17.3816 -49.4644 7.4107 12.5752 70.9953 -0.0000 0.0000 -21.6833 2.0610 -9.8340 12.9642 -0.0000 0.0000 -50.9664 -6.7613 -4.7216 70.6762 -0.0000 0.0000 -20.1830 -10.9687 3.9605 17.3396 -0.0000 0.0000 4.3013 -2.8806 0.3098 21.3158 -3.2515 0.5509 -8.2433 8.3458 2.6465 5.6842 -10.5047 -3.4836 -20.2436 9.4148 36.6949 -82.0840 -12.3592 -72.8940 -0.0004 -63.0212 -0.0003 -34.9692 -57.7653 39.7182 -0.0000 0.0000 -0.0000 -0.0000 0.0000 -0.0000 6.5872 -5.2744 -23.1998 -115.5796 20.9465 81.5108 -0.0004 61.3574 0.0002 -25.6207 -57.6312 -74.3040 -0.0000 0.0000 -0.0000 -0.0000 0.0000 -0.0000
 -32.4227 28.5271 -8.4890 3.5351 82.6823 -3.3545 -47.3097 6.8336 12.6937 75.1764 -0.0000 0.0000 -28.4342 7.4658 -9.3192 11.5003 -0.0000 0.0000 -50.6137 -8.4279 -4.2396 74.7092 -0.0000 0.0000 -24.3117 -9.7283 2.0268 15.0027 -0.0000 0.0000 3.9119 -2.4359 -0.1251 25.3176 -2.6841 0.8647 -9.1282 10.1236 3.7068 0.5977 -8.5796 -5.9074 -10.5574 14.3775 27.6955 -63.0792 -12.1765 -83.3392 -0.0006 -70.9074 -0.0004 -25.2026 -55.0647 44.2860 -0.0000 0.0000 -0.0000 -0.0000 0.0000 -0.0000 10.5265 -3.6718 -19.8409 -94.8003 20.1079 95.5496 -0.0005 65.9809 0.0003 -36.8392 -65.4306 -75.5344 -0.0000 0.0000 -0.0000 -0.0000 0.0000 -0.0000
 -30.8884 31.2735 -8.7701 31.2678 76.7083 -31.0482 -44.5183 9.7862 13.0883 63.8317 -0.0000 0.0000 -20.8998 7.2788 -9.2263 5.8145 0.0000 0.0000 -48.0746 -8.6684 -3.6232 63.2561 -0.0000 0.0000 -15.6780 -4.6889 4.5052 9.7730 0.0000 0.0000 3.9469 -2.2843 -0.4372 25.6656 -2.9536 0.2527 -11.4550 11.0164 4.0247 -0.9734 -6.2050 -6.5283 -7.9442 17.8008 22.2804 -36.8850 -15.8680 -87.8445 -0.0002 -42.9668 -0.0001 -28.6784 -45.5768 33.4756 -0.0000 0.0000 -0.0000 -0.0000 0.0000 -0.0000 17.2029 -4.3402 -14.9810 -73.6210 31.2803 98.0305 -0.0002 47.9985 0.0001 -42.3139 -66.9167 -72.3412 -0.0000 0.0000 -0.0000 -0.0000 0.0000 -0.0000
